:SAMPLES-PER-SECOND 30
:FULLY-SPECIFIED
:DEGREES
307
root  -14.1366 40.8881 -11.9541 32.7048 -85.6222 -35.0056
RightUpLeg  1.08638 -8.37526 -2.80273
RightLeg  4.34151 -14.0448 4.67394
RightFoot  -1.50519 0.0826076 -1.07866
RightToes  0.00048216 0.542163 -0.142577
Spine  -5.68483 3.15171 2.89623
Spine1  21.5556 7.53839 -10.3167
HEad  -14.0087 -1.21753 -7.87823
LeftShoulder1  8.00873 -15.6869 -35.6456
LeftArm  48.418 31.662 5.56066
LeftForeArm  -146.785 -67.1529 -161.172
LeftHand  -0.25398 0.0180481 5.50724
RightShoulder  4.58365 9.66158 28.8288
RightArm  52.479 -32.4804 15.2796
RightForeArm  127.778 81.2043 97.4351
RightHand  -11.9146 29.0386 -38.8757
LeftUpLeg  1.40455 8.42721 12.1087
LeftLeg  6.02075 1.40004 -1.05849
LeftFoot  -3.91027 0.462669 -6.75926
LeftToes  1.06246e-005 4.65855e-005 -8.18503e-006
308
root  -14.1468 40.9041 -11.7142 28.2358 -85.0119 -30.4202
RightUpLeg  1.24937 -8.48755 -3.19714
RightLeg  4.01993 -14.4983 4.68118
RightFoot  -1.24933 0.0463173 -0.620655
RightToes  0.00048216 0.542163 -0.142577
Spine  -6.07255 3.47237 2.51492
Spine1  21.1319 8.08832 -10.9632
HEad  -14.6978 -1.66142 -6.52258
LeftShoulder1  7.98741 -15.545 -35.8409
LeftArm  47.9216 31.8621 6.05307
LeftForeArm  -146.253 -66.4922 -161.804
LeftHand  -0.25398 0.0180481 5.50724
RightShoulder  4.57316 9.68778 28.6763
RightArm  52.5666 -32.847 15.8965
RightForeArm  122.886 81.2505 92.8854
RightHand  -11.9916 29.117 -39.0227
LeftUpLeg  1.06115 8.30595 11.709
LeftLeg  6.18565 0.912487 -1.15699
LeftFoot  -4.02339 0.435053 -6.42229
LeftToes  1.06246e-005 4.65855e-005 -8.18503e-006
309
root  -14.146 40.9189 -11.4641 24.5883 -84.4003 -26.5757
RightUpLeg  1.29966 -8.64379 -3.64666
RightLeg  3.73256 -14.9124 4.71275
RightFoot  -0.972249 0.00986537 -0.181521
RightToes  0.00048216 0.542163 -0.142577
Spine  -6.57763 3.75141 2.10586
Spine1  20.8944 8.52892 -11.3958
HEad  -15.6094 -1.86876 -5.02911
LeftShoulder1  7.99222 -15.4461 -36.0797
LeftArm  47.4065 32.1353 6.42465
LeftForeArm  -145.765 -65.9014 -162.344
LeftHand  -0.25398 0.0180481 5.50724
RightShoulder  4.55151 9.67452 28.5436
RightArm  52.6552 -32.9707 16.3683
RightForeArm  118.887 81.2493 89.1295
RightHand  -12.0194 29.1467 -39.074
LeftUpLeg  0.59642 8.09935 11.1985
LeftLeg  6.39546 0.5388 -1.19931
LeftFoot  -4.13675 0.401418 -5.98026
LeftToes  1.06246e-005 4.65855e-005 -8.18503e-006
310
root  -14.1369 40.9316 -11.21 21.4468 -83.7697 -23.2335
RightUpLeg  1.33494 -8.84319 -4.14448
RightLeg  3.46132 -15.2971 4.76857
RightFoot  -0.685153 -0.0242598 0.209975
RightToes  0.00048216 0.542163 -0.142577
Spine  -7.11117 4.00502 1.76102
Spine1  20.7874 8.90031 -11.689
HEad  -16.5329 -1.99807 -3.69633
LeftShoulder1  8.02927 -15.4381 -36.2877
LeftArm  46.9937 32.3613 6.69867
LeftForeArm  -145.44 -65.4585 -162.73
LeftHand  -0.25398 0.0180481 5.50724
RightShoulder  4.5213 9.62851 28.4318
RightArm  52.5699 -33.1698 16.7175
RightForeArm  116.358 81.2338 86.6175
RightHand  -11.9585 29.0691 -38.9748
LeftUpLeg  0.119639 7.87151 10.6478
LeftLeg  6.61222 0.185419 -1.24353
LeftFoot  -4.23754 0.367117 -5.49846
LeftToes  1.06246e-005 4.65855e-005 -8.18503e-006
311
root  -14.118 40.9426 -10.9543 18.4006 -83.1983 -20.087
RightUpLeg  1.45959 -9.06859 -4.72221
RightLeg  3.21328 -15.6022 4.78591
RightFoot  -0.418912 -0.0633517 0.632446
RightToes  0.00048216 0.542163 -0.142577
Spine  -7.50717 4.19778 1.43401
Spine1  20.7218 9.1659 -11.8424
HEad  -17.3186 -2.11553 -2.70284
LeftShoulder1  8.06706 -15.4778 -36.395
LeftArm  46.6774 32.6175 6.86013
LeftForeArm  -145.254 -65.1522 -162.986
LeftHand  -0.25398 0.0180481 5.50724
RightShoulder  4.50087 9.60083 28.3465
RightArm  52.3548 -33.4654 16.977
RightForeArm  114.909 81.22 85.0859
RightHand  -11.8979 28.9929 -38.8743
LeftUpLeg  -0.196105 7.62696 10.0471
LeftLeg  6.75869 -0.107196 -1.31983
LeftFoot  -4.30528 0.33756 -5.05123
LeftToes  1.06246e-005 4.65855e-005 -8.18503e-006
312
root  -14.0888 40.9529 -10.6963 15.2233 -82.7397 -16.9216
RightUpLeg  1.66801 -9.31117 -5.39259
RightLeg  3.01587 -15.8062 4.72761
RightFoot  -0.19315 -0.108458 1.09742
RightToes  0.00048216 0.542163 -0.142577
Spine  -7.74468 4.28584 1.13107
Spine1  20.683 9.31244 -11.9546
HEad  -17.9506 -2.26173 -1.80158
LeftShoulder1  8.06205 -15.4968 -36.3279
LeftArm  46.3998 32.9692 6.88036
LeftForeArm  -145.184 -64.9266 -163.167
LeftHand  -0.25398 0.0180481 5.50724
RightShoulder  4.50902 9.58622 28.4499
RightArm  52.1699 -33.6246 17.0575
RightForeArm  114.207 81.2112 84.3357
RightHand  -11.8918 28.9957 -38.853
LeftUpLeg  -0.29989 7.33703 9.36611
LeftLeg  6.78514 -0.266353 -1.42161
LeftFoot  -4.32006 0.310383 -4.6216
LeftToes  1.06246e-005 4.65855e-005 -8.18503e-006
313
root  -14.0483 40.9629 -10.4371 12.1273 -82.3624 -13.8641
RightUpLeg  1.85489 -9.56141 -6.10671
RightLeg  2.87985 -15.9439 4.61884
RightFoot  0.0171772 -0.150472 1.51368
RightToes  0.00048216 0.542163 -0.142577
Spine  -7.92389 4.27809 0.910012
Spine1  20.6581 9.34018 -12.0422
HEad  -18.4545 -2.45815 -0.842782
LeftShoulder1  8.04557 -15.4818 -36.2761
LeftArm  46.2217 33.2953 6.92327
LeftForeArm  -145.189 -64.7549 -163.298
LeftHand  -0.25398 0.0180481 5.50724
RightShoulder  4.52221 9.53108 28.7032
RightArm  52.0612 -33.6061 16.956
RightForeArm  114.115 81.2084 84.2762
RightHand  -11.8846 28.9786 -38.8496
LeftUpLeg  -0.310712 7.01733 8.63531
LeftLeg  6.72072 -0.311579 -1.54467
LeftFoot  -4.28527 0.281706 -4.15333
LeftToes  1.06246e-005 4.65855e-005 -8.18503e-006
